<svg width="1088" height="1066" viewBox="0 0 1088 1066" fill="none" xmlns="http://www.w3.org/2000/svg">
<g clip-path="url(#clip0_2188_8466)">
<rect x="252.89" y="-34.4355" width="43.8395" height="718.92" transform="rotate(35.7192 252.89 -34.4355)" fill="#3C7092"/>
<rect x="1081.82" y="559.066" width="43.8395" height="718.92" transform="rotate(35.7192 1081.82 559.066)" fill="#3C7092"/>
<rect x="243.059" y="-8.91113" width="43.8395" height="1442.49" transform="rotate(-54.2721 243.059 -8.91113)" fill="#3C7092"/>
<rect x="269.723" y="4.02539" width="987.004" height="1057.7" rx="22" transform="rotate(35.5342 269.723 4.02539)" fill="white"/>
<rect x="-199.499" y="556.052" width="19.479" height="1442.49" transform="rotate(-50.4819 -199.499 556.052)" fill="#8EDA4F"/>
<rect x="-261" y="614.842" width="19.2064" height="1442.49" transform="rotate(-50.4819 -261 614.842)" fill="#8EDA4F"/>
<rect x="-377.499" y="615.052" width="19.479" height="1442.49" transform="rotate(-50.4819 -377.499 615.052)" fill="#8EDA4F"/>
<rect x="-439" y="673.842" width="19.2064" height="1442.49" transform="rotate(-50.4819 -439 673.842)" fill="#8EDA4F"/>
<path d="M73.3288 573C66.4764 573 60.557 571.292 55.5704 567.876C50.5838 564.46 46.7336 559.664 44.0198 553.486C41.3399 547.308 40 540.095 40 531.846C40 523.561 41.3399 516.456 44.0198 510.533C46.6997 504.573 50.5329 499.995 55.5195 496.797C60.5061 493.599 66.4425 492 73.3288 492C78.8581 492 83.7769 493.199 88.085 495.598C92.4271 497.96 95.9211 501.194 98.567 505.3C101.247 509.406 102.824 514.04 103.299 519.2H87.7288C87.2539 516.474 86.3889 514.058 85.1338 511.95C83.8786 509.806 82.2334 508.135 80.1981 506.935C78.1627 505.7 75.7203 505.082 72.8708 505.082C69.4447 505.082 66.4934 505.972 64.0171 507.753C61.5407 509.534 59.6411 512.404 58.3181 516.365C56.9951 520.326 56.3336 525.559 56.3336 532.064C56.3336 541.876 57.7923 548.98 60.7096 553.377C63.6609 557.738 67.7146 559.918 72.8708 559.918C75.7203 559.918 78.1627 559.227 80.1981 557.847C82.2334 556.429 83.8786 554.576 85.1338 552.287C86.3889 549.961 87.2539 547.417 87.7288 544.655H103.299C102.858 548.398 102.01 551.978 100.755 555.394C99.4999 558.773 97.719 561.789 95.4123 564.442C93.1055 567.095 90.1373 569.184 86.5076 570.711C82.8779 572.237 78.485 573 73.3288 573ZM146.985 573C140.031 573 134.01 571.383 128.921 568.149C123.867 564.878 119.949 560.245 117.167 554.249C114.42 548.217 113.046 541.022 113.046 532.664C113.046 524.269 114.437 517.038 117.218 510.969C120.034 504.9 123.986 500.231 129.074 496.96C134.162 493.653 140.133 492 146.985 492C153.804 492 159.74 493.635 164.794 496.906C169.849 500.176 173.75 504.846 176.498 510.915C179.279 516.983 180.67 524.233 180.67 532.664C180.67 540.985 179.296 548.162 176.549 554.194C173.835 560.227 169.951 564.878 164.896 568.149C159.842 571.383 153.871 573 146.985 573ZM146.985 559.918C150.581 559.918 153.685 559.009 156.297 557.192C158.943 555.339 160.978 552.432 162.403 548.471C163.828 544.474 164.54 539.277 164.54 532.882C164.54 526.304 163.811 520.98 162.352 516.911C160.927 512.841 158.892 509.861 156.246 507.971C153.634 506.045 150.547 505.082 146.985 505.082C143.423 505.082 140.319 506.045 137.673 507.971C135.028 509.861 132.975 512.859 131.517 516.965C130.058 521.035 129.329 526.341 129.329 532.882C129.329 539.314 130.058 544.51 131.517 548.471C132.975 552.432 135.028 555.339 137.673 557.192C140.319 559.009 143.423 559.918 146.985 559.918ZM193.823 571.91V493.09H224.862C230.73 493.09 235.531 494.09 239.262 496.088C242.993 498.087 245.741 500.867 247.505 504.428C249.269 507.953 250.151 512.023 250.151 516.638C250.151 520.781 249.54 524.287 248.319 527.158C247.132 529.993 245.555 532.355 243.587 534.244C241.653 536.134 239.533 537.678 237.227 538.878L250.914 571.91H235.497L223.539 541.548H208.63V571.91H193.823ZM208.63 529.284H222.216C226.185 529.284 229.323 528.139 231.629 525.85C233.97 523.561 235.14 520.617 235.14 517.02C235.14 513.386 234.021 510.515 231.782 508.407C229.543 506.299 226.711 505.246 223.285 505.246H208.63V529.284ZM264.683 571.91V493.09H295.722C301.591 493.09 306.391 494.09 310.122 496.088C313.854 498.087 316.601 500.867 318.365 504.428C320.129 507.953 321.011 512.023 321.011 516.638C321.011 520.781 320.401 524.287 319.179 527.158C317.992 529.993 316.415 532.355 314.447 534.244C312.514 536.134 310.393 537.678 308.087 538.878L321.774 571.91H306.357L294.399 541.548H279.49V571.91H264.683ZM279.49 529.284H293.076C297.045 529.284 300.183 528.139 302.49 525.85C304.83 523.561 306.001 520.617 306.001 517.02C306.001 513.386 304.881 510.515 302.642 508.407C300.403 506.299 297.571 505.246 294.145 505.246H279.49V529.284ZM364.534 573C357.58 573 351.558 571.383 346.47 568.149C341.416 564.878 337.497 560.245 334.716 554.249C331.968 548.217 330.594 541.022 330.594 532.664C330.594 524.269 331.985 517.038 334.767 510.969C337.582 504.9 341.534 500.231 346.623 496.96C351.711 493.653 357.681 492 364.534 492C371.352 492 377.288 493.635 382.343 496.906C387.397 500.176 391.298 504.846 394.046 510.915C396.828 516.983 398.219 524.233 398.219 532.664C398.219 540.985 396.845 548.162 394.097 554.194C391.383 560.227 387.499 564.878 382.445 568.149C377.39 571.383 371.42 573 364.534 573ZM364.534 559.918C368.129 559.918 371.233 559.009 373.845 557.192C376.491 555.339 378.527 552.432 379.951 548.471C381.376 544.474 382.088 539.277 382.088 532.882C382.088 526.304 381.359 520.98 379.9 516.911C378.476 512.841 376.44 509.861 373.794 507.971C371.182 506.045 368.095 505.082 364.534 505.082C360.972 505.082 357.868 506.045 355.222 507.971C352.576 509.861 350.524 512.859 349.065 516.965C347.606 521.035 346.877 526.341 346.877 532.882C346.877 539.314 347.606 544.51 349.065 548.471C350.524 552.432 352.576 555.339 355.222 557.192C357.868 559.009 360.972 559.918 364.534 559.918ZM439.347 573C435.684 573 432.105 572.509 428.611 571.528C425.117 570.547 421.928 569.075 419.045 567.113C416.161 565.151 413.787 562.698 411.921 559.754C410.089 556.811 408.987 553.359 408.614 549.398H423.828C424.337 551.796 425.304 553.813 426.728 555.448C428.187 557.083 430.053 558.337 432.325 559.209C434.632 560.081 437.261 560.517 440.212 560.517C442.553 560.517 444.775 560.154 446.878 559.427C448.981 558.701 450.694 557.592 452.017 556.102C453.34 554.612 454.002 552.741 454.002 550.488C454.002 547.799 453.086 545.782 451.254 544.437C449.422 543.057 446.929 541.966 443.774 541.167L429.985 537.951C426.084 537.079 422.675 535.734 419.757 533.917C416.874 532.064 414.652 529.666 413.091 526.722C411.531 523.742 410.751 520.127 410.751 515.875C410.751 510.969 412.006 506.736 414.516 503.174C417.06 499.613 420.504 496.888 424.846 494.998C429.222 493.072 434.123 492.109 439.551 492.109C445.691 492.109 450.864 493.181 455.07 495.325C459.311 497.433 462.55 500.304 464.789 503.937C467.028 507.535 468.165 511.55 468.198 515.984H453.34C453.069 513.258 452.289 511.078 451 509.443C449.711 507.771 448.049 506.572 446.013 505.845C444.012 505.082 441.722 504.701 439.144 504.701C434.7 504.701 431.46 505.664 429.425 507.59C427.39 509.515 426.372 511.75 426.372 514.294C426.372 516.692 427.135 518.637 428.662 520.127C430.222 521.58 432.716 522.688 436.142 523.452L448.914 526.395C453.663 527.376 457.513 528.939 460.464 531.083C463.415 533.19 465.569 535.752 466.926 538.769C468.283 541.785 468.962 545.164 468.962 548.907C468.962 553.668 467.69 557.865 465.145 561.499C462.635 565.096 459.158 567.913 454.714 569.948C450.27 571.983 445.148 573 439.347 573ZM482.13 571.91V493.09H496.937V571.91H482.13ZM544.017 573C537.063 573 531.042 571.383 525.953 568.149C520.899 564.878 516.981 560.245 514.199 554.249C511.452 548.217 510.078 541.022 510.078 532.664C510.078 524.269 511.469 517.038 514.25 510.969C517.066 504.9 521.018 500.231 526.106 496.96C531.194 493.653 537.165 492 544.017 492C550.836 492 556.772 493.635 561.826 496.906C566.881 500.176 570.782 504.846 573.53 510.915C576.311 516.983 577.702 524.233 577.702 532.664C577.702 540.985 576.328 548.162 573.581 554.194C570.867 560.227 566.983 564.878 561.928 568.149C556.874 571.383 550.903 573 544.017 573ZM544.017 559.918C547.613 559.918 550.717 559.009 553.329 557.192C555.975 555.339 558.01 552.432 559.435 548.471C560.86 544.474 561.572 539.277 561.572 532.882C561.572 526.304 560.843 520.98 559.384 516.911C557.959 512.841 555.924 509.861 553.278 507.971C550.666 506.045 547.579 505.082 544.017 505.082C540.455 505.082 537.351 506.045 534.705 507.971C532.06 509.861 530.007 512.859 528.549 516.965C527.09 521.035 526.361 526.341 526.361 532.882C526.361 539.314 527.09 544.51 528.549 548.471C530.007 552.432 532.06 555.339 534.705 557.192C537.351 559.009 540.455 559.918 544.017 559.918ZM590.853 571.91V493.09H605.559L639.142 545.255V493.09H654V571.91H640.618L605.661 517.674V571.91H590.853Z" fill="#363636"/>
<path d="M691.033 573C684.059 573 678.022 571.383 672.919 568.149C667.851 564.878 663.922 560.245 661.133 554.249C658.378 548.217 657 541.022 657 532.664C657 524.269 658.395 517.038 661.184 510.969C664.007 504.9 667.97 500.231 673.072 496.96C678.175 493.653 684.161 492 691.033 492C697.87 492 703.822 493.635 708.891 496.906C713.959 500.176 717.871 504.846 720.626 510.915C723.415 516.983 724.81 524.233 724.81 532.664C724.81 540.985 723.432 548.162 720.677 554.194C717.956 560.227 714.061 564.878 708.993 568.149C703.924 571.383 697.938 573 691.033 573ZM691.033 559.918C694.638 559.918 697.751 559.009 700.37 557.192C703.023 555.339 705.064 552.432 706.493 548.471C707.921 544.474 708.636 539.277 708.636 532.882C708.636 526.304 707.904 520.98 706.442 516.911C705.013 512.841 702.972 509.861 700.319 507.971C697.7 506.045 694.604 505.082 691.033 505.082C687.461 505.082 684.349 506.045 681.695 507.971C679.042 509.861 676.984 512.859 675.521 516.965C674.059 521.035 673.328 526.341 673.328 532.882C673.328 539.314 674.059 544.51 675.521 548.471C676.984 552.432 679.042 555.339 681.695 557.192C684.349 559.009 687.461 559.918 691.033 559.918ZM738 571.91V493.09H752.745L786.421 545.255V493.09H801.32V571.91H787.901L752.847 517.674V571.91H738ZM817.824 571.91V493.09H868.49L868.439 506.499H832.773V525.632H863.745V538.769H832.671V558.337L869 558.392V571.91H817.824Z" fill="#8EDA4F"/>
</g>
<defs>
<clipPath id="clip0_2188_8466">
<rect width="1088" height="1066" fill="white"/>
</clipPath>
</defs>
</svg>
