<svg width="1048" height="1065" viewBox="0 0 1048 1065" fill="none" xmlns="http://www.w3.org/2000/svg">
<path fill-rule="evenodd" clip-rule="evenodd" d="M651.494 435.58C651.494 505.992 594.413 563.073 524 563.073C453.587 563.073 396.506 505.992 396.506 435.58C396.506 365.167 453.587 308.086 524 308.086C538.727 308.086 552.871 310.583 566.031 315.176L550.765 352.297C542.329 349.588 533.335 348.125 524 348.125C475.7 348.125 436.546 387.28 436.546 435.579C436.546 483.879 475.7 523.034 524 523.034C572.3 523.034 611.454 483.879 611.454 435.579C611.454 423.741 609.102 412.452 604.84 402.154L634.702 372.292C645.386 390.941 651.494 412.547 651.494 435.58Z" fill="#1F4255"/>
<path fill-rule="evenodd" clip-rule="evenodd" d="M626.9 360.291C614.629 343.549 598.371 329.913 579.525 320.781L563.871 357.724C564.648 358.123 565.419 358.533 566.183 358.955L569.519 360.561L507.357 422.726L536.433 451.596L626.9 360.291Z" fill="#6DDA43"/>
<path d="M94.6972 696.724C88.331 696.724 82.4195 695.741 76.9627 693.776C71.5817 691.735 66.8827 688.863 62.866 685.159C58.925 681.455 55.8555 677.071 53.6576 672.007C51.4598 666.943 50.3608 661.349 50.3608 655.227C50.3608 649.105 51.4598 643.511 53.6576 638.447C55.8555 633.383 58.925 628.999 62.866 625.295C66.8827 621.591 71.5817 618.757 76.9627 616.792C82.4195 614.751 88.331 613.73 94.6972 613.73C102.504 613.73 109.4 615.091 115.388 617.812C121.451 620.533 126.453 624.464 130.394 629.603L113.455 644.683C111.105 641.735 108.491 639.467 105.611 637.88C102.807 636.217 99.6234 635.386 96.0614 635.386C93.2572 635.386 90.7183 635.839 88.4447 636.746C86.171 637.653 84.2006 638.976 82.5331 640.715C80.9416 642.453 79.6911 644.569 78.7816 647.064C77.8721 649.482 77.4174 652.204 77.4174 655.227C77.4174 658.25 77.8721 661.009 78.7816 663.504C79.6911 665.922 80.9416 668.001 82.5331 669.739C84.2006 671.478 86.171 672.801 88.4447 673.708C90.7183 674.615 93.2572 675.068 96.0614 675.068C99.6234 675.068 102.807 674.275 105.611 672.687C108.491 671.024 111.105 668.719 113.455 665.771L130.394 680.851C126.453 685.915 121.451 689.845 115.388 692.642C109.4 695.363 102.504 696.724 94.6972 696.724ZM171.082 696.724C164.64 696.724 158.653 695.703 153.121 693.662C147.664 691.622 142.927 688.749 138.91 685.046C134.893 681.266 131.748 676.845 129.474 671.78C127.277 666.716 126.178 661.198 126.178 655.227C126.178 649.18 127.277 643.662 129.474 638.674C131.748 633.609 134.893 629.226 138.91 625.522C142.927 621.743 147.664 618.833 153.121 616.792C158.653 614.751 164.64 613.73 171.082 613.73C177.6 613.73 183.588 614.751 189.044 616.792C194.501 618.833 199.238 621.743 203.255 625.522C207.272 629.226 210.379 633.609 212.577 638.674C214.85 643.662 215.987 649.18 215.987 655.227C215.987 661.198 214.85 666.716 212.577 671.78C210.379 676.845 207.272 681.266 203.255 685.046C199.238 688.749 194.501 691.622 189.044 693.662C183.588 695.703 177.6 696.724 171.082 696.724ZM171.082 675.068C173.584 675.068 175.895 674.615 178.017 673.708C180.215 672.801 182.11 671.516 183.701 669.853C185.369 668.114 186.657 666.036 187.567 663.617C188.476 661.123 188.931 658.326 188.931 655.227C188.931 652.128 188.476 649.369 187.567 646.95C186.657 644.456 185.369 642.378 183.701 640.715C182.11 638.976 180.215 637.653 178.017 636.746C175.895 635.839 173.584 635.386 171.082 635.386C168.581 635.386 166.232 635.839 164.034 636.746C161.912 637.653 160.017 638.976 158.35 640.715C156.758 642.378 155.508 644.456 154.598 646.95C153.689 649.369 153.234 652.128 153.234 655.227C153.234 658.326 153.689 661.123 154.598 663.617C155.508 666.036 156.758 668.114 158.35 669.853C160.017 671.516 161.912 672.801 164.034 673.708C166.232 674.615 168.581 675.068 171.082 675.068ZM220.609 694.909V615.545H257.783C269.986 615.545 279.269 618.228 285.635 623.594C292.003 628.961 295.186 636.255 295.186 645.476C295.186 651.599 293.708 656.89 290.751 661.349C287.797 665.733 283.591 669.097 278.132 671.44C272.752 673.783 266.348 674.955 258.92 674.955H235.501L247.438 663.957V694.909H220.609ZM268.242 694.909L248.688 665.998H277.109L296.891 694.909H268.242ZM247.438 666.905L235.501 654.774H257.214C260.929 654.774 263.657 653.942 265.401 652.279C267.218 650.616 268.128 648.349 268.128 645.476C268.128 642.604 267.218 640.337 265.401 638.674C263.657 637.011 260.929 636.179 257.214 636.179H235.501L247.438 624.048V666.905ZM300.201 694.909V615.545H337.375C349.576 615.545 358.861 618.228 365.227 623.594C371.594 628.961 374.777 636.255 374.777 645.476C374.777 651.599 373.299 656.89 370.343 661.349C367.387 665.733 363.181 669.097 357.724 671.44C352.344 673.783 345.939 674.955 338.512 674.955H315.093L327.03 663.957V694.909H300.201ZM347.834 694.909L328.28 665.998H356.701L376.482 694.909H347.834ZM327.03 666.905L315.093 654.774H336.807C340.521 654.774 343.249 653.942 344.992 652.279C346.811 650.616 347.72 648.349 347.72 645.476C347.72 642.604 346.811 640.337 344.992 638.674C343.249 637.011 340.521 636.179 336.807 636.179H315.093L327.03 624.048V666.905ZM421.513 696.724C415.072 696.724 409.084 695.703 403.551 693.662C398.094 691.622 393.359 688.749 389.341 685.046C385.324 681.266 382.179 676.845 379.905 671.78C377.708 666.716 376.608 661.198 376.608 655.227C376.608 649.18 377.708 643.662 379.905 638.674C382.179 633.609 385.324 629.226 389.341 625.522C393.359 621.743 398.094 618.833 403.551 616.792C409.084 614.751 415.072 613.73 421.513 613.73C428.032 613.73 434.018 614.751 439.475 616.792C444.932 618.833 449.669 621.743 453.685 625.522C457.703 629.226 460.81 633.609 463.007 638.674C465.281 643.662 466.418 649.18 466.418 655.227C466.418 661.198 465.281 666.716 463.007 671.78C460.81 676.845 457.703 681.266 453.685 685.046C449.669 688.749 444.932 691.622 439.475 693.662C434.018 695.703 428.032 696.724 421.513 696.724ZM421.513 675.068C424.014 675.068 426.327 674.615 428.448 673.708C430.647 672.801 432.54 671.516 434.132 669.853C435.8 668.114 437.088 666.036 437.997 663.617C438.906 661.123 439.361 658.326 439.361 655.227C439.361 652.128 438.906 649.369 437.997 646.95C437.088 644.456 435.8 642.378 434.132 640.715C432.54 638.976 430.647 637.653 428.448 636.746C426.327 635.839 424.014 635.386 421.513 635.386C419.012 635.386 416.664 635.839 414.465 636.746C412.344 637.653 410.448 638.976 408.78 640.715C407.189 642.378 405.938 644.456 405.029 646.95C404.119 649.369 403.665 652.128 403.665 655.227C403.665 658.326 404.119 661.123 405.029 663.617C405.938 666.036 407.189 668.114 408.78 669.853C410.448 671.516 412.344 672.801 414.465 673.708C416.664 674.615 419.012 675.068 421.513 675.068ZM500.713 696.724C494.043 696.724 487.6 695.968 481.387 694.456C475.171 692.944 470.056 690.979 466.039 688.56L474.679 669.059C478.468 671.251 482.674 673.027 487.298 674.388C491.996 675.673 496.544 676.315 500.94 676.315C503.516 676.315 505.525 676.164 506.965 675.862C508.481 675.484 509.58 674.993 510.262 674.388C510.944 673.708 511.285 672.914 511.285 672.007C511.285 670.571 510.489 669.437 508.898 668.606C507.306 667.774 505.184 667.094 502.532 666.565C499.954 665.96 497.112 665.355 494.005 664.751C490.897 664.071 487.753 663.201 484.57 662.143C481.461 661.085 478.582 659.687 475.93 657.948C473.352 656.21 471.269 653.942 469.677 651.145C468.086 648.273 467.29 644.721 467.29 640.488C467.29 635.575 468.654 631.115 471.383 627.109C474.186 623.028 478.317 619.777 483.774 617.359C489.305 614.94 496.165 613.73 504.351 613.73C509.731 613.73 515.037 614.297 520.266 615.431C525.496 616.565 530.194 618.303 534.363 620.647L526.291 640.034C522.35 638.069 518.522 636.595 514.809 635.613C511.172 634.63 507.608 634.139 504.123 634.139C501.546 634.139 499.5 634.365 497.984 634.819C496.467 635.272 495.37 635.877 494.688 636.633C494.08 637.389 493.778 638.22 493.778 639.127C493.778 640.488 494.574 641.584 496.165 642.415C497.757 643.171 499.841 643.814 502.418 644.343C505.07 644.872 507.949 645.439 511.058 646.043C514.241 646.648 517.385 647.48 520.494 648.538C523.6 649.596 526.442 650.994 529.02 652.733C531.672 654.471 533.795 656.739 535.386 659.535C536.978 662.332 537.773 665.809 537.773 669.966C537.773 674.804 536.37 679.263 533.567 683.345C530.839 687.351 526.746 690.601 521.289 693.095C515.833 695.514 508.973 696.724 500.713 696.724ZM540.64 694.909V615.545H567.47V694.909H540.64ZM616.991 696.724C610.548 696.724 604.562 695.703 599.029 693.662C593.572 691.622 588.835 688.749 584.819 685.046C580.803 681.266 577.657 676.845 575.383 671.78C573.186 666.716 572.086 661.198 572.086 655.227C572.086 649.18 573.186 643.662 575.383 638.674C577.657 633.609 580.803 629.226 584.819 625.522C588.835 621.743 593.572 618.833 599.029 616.792C604.562 614.751 610.548 613.73 616.991 613.73C623.508 613.73 629.496 614.751 634.953 616.792C640.41 618.833 645.147 621.743 649.163 625.522C653.18 629.226 656.288 633.609 658.485 638.674C660.759 643.662 661.896 649.18 661.896 655.227C661.896 661.198 660.759 666.716 658.485 671.78C656.288 676.845 653.18 681.266 649.163 685.046C645.147 688.749 640.41 691.622 634.953 693.662C629.496 695.703 623.508 696.724 616.991 696.724ZM616.991 675.068C619.492 675.068 621.803 674.615 623.926 673.708C626.123 672.801 628.018 671.516 629.61 669.853C631.278 668.114 632.566 666.036 633.475 663.617C634.385 661.123 634.839 658.326 634.839 655.227C634.839 652.128 634.385 649.369 633.475 646.95C632.566 644.456 631.278 642.378 629.61 640.715C628.018 638.976 626.123 637.653 623.926 636.746C621.803 635.839 619.492 635.386 616.991 635.386C614.49 635.386 612.14 635.839 609.943 636.746C607.82 637.653 605.926 638.976 604.259 640.715C602.667 642.378 601.416 644.456 600.507 646.95C599.598 649.369 599.143 652.128 599.143 655.227C599.143 658.326 599.598 661.123 600.507 663.617C601.416 666.036 602.667 668.114 604.259 669.853C605.926 671.516 607.82 672.801 609.943 673.708C612.14 674.615 614.49 675.068 616.991 675.068ZM666.518 694.909V615.545H688.572L729.043 663.844H718.812V615.545H744.959V694.909H722.905L682.433 646.61H692.665V694.909H666.518Z" fill="#1F4255"/>
<path d="M794.491 696.724C788.05 696.724 782.062 695.703 776.529 693.662C771.073 691.622 766.337 688.749 762.319 685.046C758.303 681.266 755.157 676.845 752.883 671.78C750.686 666.716 749.586 661.198 749.586 655.227C749.586 649.18 750.686 643.662 752.883 638.674C755.157 633.609 758.303 629.226 762.319 625.522C766.337 621.743 771.073 618.833 776.529 616.792C782.062 614.751 788.05 613.73 794.491 613.73C801.01 613.73 806.996 614.751 812.453 616.792C817.91 618.833 822.647 621.743 826.664 625.522C830.682 629.226 833.788 633.609 835.986 638.674C838.259 643.662 839.396 649.18 839.396 655.227C839.396 661.198 838.259 666.716 835.986 671.78C833.788 676.845 830.682 681.266 826.664 685.046C822.647 688.749 817.91 691.622 812.453 693.662C806.996 695.703 801.01 696.724 794.491 696.724ZM794.491 675.068C796.992 675.068 799.305 674.615 801.426 673.708C803.625 672.801 805.518 671.516 807.11 669.853C808.778 668.114 810.066 666.036 810.975 663.617C811.885 661.123 812.339 658.326 812.339 655.227C812.339 652.128 811.885 649.369 810.975 646.95C810.066 644.456 808.778 642.378 807.11 640.715C805.518 638.976 803.625 637.653 801.426 636.746C799.305 635.839 796.992 635.386 794.491 635.386C791.99 635.386 789.642 635.839 787.443 636.746C785.322 637.653 783.427 638.976 781.759 640.715C780.167 642.378 778.917 644.456 778.007 646.95C777.098 649.369 776.643 652.128 776.643 655.227C776.643 658.326 777.098 661.123 778.007 663.617C778.917 666.036 780.167 668.114 781.759 669.853C783.427 671.516 785.322 672.801 787.443 673.708C789.642 674.615 791.99 675.068 794.491 675.068ZM844.02 694.909V615.545H866.074L906.545 663.844H896.314V615.545H922.461V694.909H900.407L859.935 646.61H870.167V694.909H844.02ZM930.271 694.909V615.545H994.957V635.726H956.646V674.728H996.435V694.909H930.271ZM954.827 664.297V645.023H990.296V664.297H954.827Z" fill="#6DDA43"/>
<path d="M114.812 748.056V723.254H123.196V748.056H114.812ZM141.798 748.056V723.254H148.69L161.337 738.348H158.14V723.254H166.311V748.056H159.419L146.772 732.962H149.969V748.056H141.798ZM194.188 748.623C192.104 748.623 190.091 748.387 188.149 747.914C186.207 747.442 184.608 746.828 183.353 746.072L186.053 739.978C187.237 740.663 188.552 741.218 189.996 741.643C191.465 742.045 192.886 742.245 194.259 742.245C195.065 742.245 195.692 742.198 196.142 742.104C196.616 741.985 196.959 741.832 197.173 741.643C197.386 741.43 197.492 741.182 197.492 740.899C197.492 740.45 197.244 740.096 196.746 739.836C196.249 739.576 195.586 739.364 194.757 739.198C193.952 739.009 193.063 738.82 192.092 738.631C191.121 738.419 190.138 738.147 189.144 737.816C188.173 737.486 187.273 737.049 186.444 736.506C185.639 735.962 184.987 735.254 184.49 734.38C183.992 733.482 183.744 732.372 183.744 731.049C183.744 729.514 184.17 728.12 185.023 726.868C185.899 725.593 187.19 724.577 188.895 723.821C190.624 723.065 192.767 722.688 195.325 722.688C197.007 722.688 198.665 722.865 200.299 723.219C201.933 723.573 203.402 724.117 204.704 724.849L202.182 730.907C200.95 730.293 199.754 729.833 198.594 729.526C197.457 729.219 196.344 729.065 195.254 729.065C194.449 729.065 193.809 729.136 193.336 729.278C192.862 729.419 192.519 729.608 192.306 729.845C192.116 730.081 192.021 730.341 192.021 730.624C192.021 731.049 192.27 731.392 192.767 731.651C193.265 731.888 193.916 732.089 194.721 732.254C195.55 732.419 196.45 732.596 197.421 732.785C198.416 732.974 199.399 733.234 200.37 733.565C201.341 733.895 202.229 734.332 203.034 734.876C203.863 735.419 204.526 736.128 205.024 737.002C205.521 737.875 205.77 738.962 205.77 740.261C205.77 741.773 205.332 743.166 204.455 744.442C203.603 745.694 202.324 746.71 200.619 747.489C198.913 748.245 196.77 748.623 194.188 748.623ZM222.83 748.056V723.254H234.803C237.124 723.254 239.124 723.632 240.807 724.388C242.512 725.144 243.826 726.231 244.75 727.648C245.674 729.041 246.136 730.695 246.136 732.608C246.136 734.521 245.674 736.175 244.75 737.568C243.826 738.962 242.512 740.049 240.807 740.828C239.124 741.584 237.124 741.962 234.803 741.962H227.484L231.215 738.383V748.056H222.83ZM231.215 739.305L227.484 735.513H234.27C235.43 735.513 236.282 735.254 236.828 734.734C237.396 734.214 237.68 733.506 237.68 732.608C237.68 731.71 237.396 731.002 236.828 730.482C236.282 729.963 235.43 729.703 234.27 729.703H227.484L231.215 725.912V739.305ZM263.451 748.056V723.254H283.665V729.561H271.693V741.749H284.127V748.056H263.451ZM271.124 738.49V732.466H282.209V738.49H271.124ZM314.781 748.623C312.791 748.623 310.944 748.316 309.238 747.702C307.556 747.064 306.089 746.166 304.833 745.009C303.602 743.852 302.643 742.481 301.956 740.899C301.268 739.316 300.925 737.568 300.925 735.655C300.925 733.742 301.268 731.994 301.956 730.411C302.643 728.829 303.602 727.459 304.833 726.301C306.089 725.144 307.556 724.258 309.238 723.644C310.944 723.006 312.791 722.688 314.781 722.688C317.219 722.688 319.376 723.113 321.246 723.963C323.142 724.813 324.705 726.042 325.936 727.648L320.642 732.36C319.909 731.439 319.092 730.73 318.191 730.234C317.315 729.715 316.321 729.455 315.207 729.455C314.331 729.455 313.537 729.596 312.827 729.88C312.116 730.163 311.5 730.577 310.979 731.12C310.482 731.663 310.091 732.325 309.807 733.104C309.523 733.86 309.381 734.71 309.381 735.655C309.381 736.6 309.523 737.462 309.807 738.242C310.091 738.998 310.482 739.647 310.979 740.19C311.5 740.734 312.116 741.147 312.827 741.43C313.537 741.714 314.331 741.856 315.207 741.856C316.321 741.856 317.315 741.608 318.191 741.112C319.092 740.592 319.909 739.871 320.642 738.95L325.936 743.663C324.705 745.245 323.142 746.473 321.246 747.347C319.376 748.198 317.219 748.623 314.781 748.623ZM347.905 748.056V729.738H340.622V723.254H363.572V729.738H356.289V748.056H347.905ZM380.315 748.056V723.254H388.699V748.056H380.315ZM420.341 748.623C418.326 748.623 416.456 748.304 414.728 747.666C413.022 747.028 411.541 746.131 410.287 744.973C409.031 743.792 408.049 742.411 407.338 740.828C406.651 739.246 406.308 737.521 406.308 735.655C406.308 733.765 406.651 732.041 407.338 730.482C408.049 728.9 409.031 727.53 410.287 726.372C411.541 725.191 413.022 724.282 414.728 723.644C416.456 723.006 418.326 722.688 420.341 722.688C422.376 722.688 424.248 723.006 425.954 723.644C427.659 724.282 429.139 725.191 430.394 726.372C431.649 727.53 432.62 728.9 433.308 730.482C434.018 732.041 434.373 733.765 434.373 735.655C434.373 737.521 434.018 739.246 433.308 740.828C432.62 742.411 431.649 743.792 430.394 744.973C429.139 746.131 427.659 747.028 425.954 747.666C424.248 748.304 422.376 748.623 420.341 748.623ZM420.341 741.856C421.122 741.856 421.843 741.714 422.508 741.43C423.193 741.147 423.787 740.745 424.284 740.226C424.804 739.682 425.208 739.033 425.492 738.277C425.776 737.498 425.918 736.624 425.918 735.655C425.918 734.687 425.776 733.825 425.492 733.069C425.208 732.289 424.804 731.64 424.284 731.12C423.787 730.577 423.193 730.163 422.508 729.88C421.843 729.596 421.122 729.455 420.341 729.455C419.559 729.455 418.824 729.596 418.138 729.88C417.474 730.163 416.882 730.577 416.362 731.12C415.864 731.64 415.474 732.289 415.189 733.069C414.905 733.825 414.763 734.687 414.763 735.655C414.763 736.624 414.905 737.498 415.189 738.277C415.474 739.033 415.864 739.682 416.362 740.226C416.882 740.745 417.474 741.147 418.138 741.43C418.824 741.714 419.559 741.856 420.341 741.856ZM451.982 748.056V723.254H458.874L471.521 738.348H468.324V723.254H476.495V748.056H469.603L456.955 732.962H460.153V748.056H451.982ZM520.316 748.056V723.254H527.208L537.155 739.446H533.532L543.195 723.254H550.087L550.158 748.056H542.52L542.449 734.734H543.657L537.049 745.824H533.354L526.462 734.734H527.954V748.056H520.316ZM566.077 748.056L576.948 723.254H585.19L596.061 748.056H587.393L579.364 727.223H582.632L574.603 748.056H566.077ZM572.543 743.733L574.674 737.71H586.114L588.245 743.733H572.543ZM611.964 748.056V723.254H624.221C626.992 723.254 629.432 723.762 631.539 724.778C633.647 725.77 635.294 727.187 636.477 729.03C637.662 730.872 638.253 733.081 638.253 735.655C638.253 738.206 637.662 740.415 636.477 742.281C635.294 744.123 633.647 745.552 631.539 746.568C629.432 747.56 626.992 748.056 624.221 748.056H611.964ZM620.348 741.537H623.865C625.05 741.537 626.08 741.312 626.956 740.863C627.857 740.415 628.555 739.753 629.052 738.879C629.549 737.982 629.798 736.907 629.798 735.655C629.798 734.38 629.549 733.305 629.052 732.431C628.555 731.557 627.857 730.896 626.956 730.447C626.08 729.998 625.05 729.774 623.865 729.774H620.348V741.537ZM655.881 748.056V723.254H676.096V729.561H664.123V741.749H676.557V748.056H655.881ZM663.555 738.49V732.466H674.639V738.49H663.555ZM728.839 748.623C726.754 748.623 724.741 748.387 722.8 747.914C720.857 747.442 719.258 746.828 718.004 746.072L720.704 739.978C721.887 740.663 723.201 741.218 724.647 741.643C726.114 742.045 727.535 742.245 728.91 742.245C729.715 742.245 730.342 742.198 730.793 742.104C731.266 741.985 731.61 741.832 731.823 741.643C732.036 741.43 732.143 741.182 732.143 740.899C732.143 740.45 731.894 740.096 731.397 739.836C730.9 739.576 730.235 739.364 729.408 739.198C728.601 739.009 727.713 738.82 726.743 738.631C725.771 738.419 724.789 738.147 723.795 737.816C722.823 737.486 721.922 737.049 721.094 736.506C720.288 735.962 719.638 735.254 719.141 734.38C718.643 733.482 718.394 732.372 718.394 731.049C718.394 729.514 718.821 728.12 719.673 726.868C720.549 725.593 721.841 724.577 723.546 723.821C725.274 723.065 727.418 722.688 729.976 722.688C731.656 722.688 733.315 722.865 734.95 723.219C736.584 723.573 738.051 724.117 739.355 724.849L736.832 730.907C735.6 730.293 734.404 729.833 733.244 729.526C732.108 729.219 730.994 729.065 729.905 729.065C729.099 729.065 728.459 729.136 727.987 729.278C727.512 729.419 727.169 729.608 726.956 729.845C726.766 730.081 726.672 730.341 726.672 730.624C726.672 731.049 726.921 731.392 727.418 731.651C727.915 731.888 728.566 732.089 729.372 732.254C730.2 732.419 731.1 732.596 732.072 732.785C733.067 732.974 734.049 733.234 735.021 733.565C735.991 733.895 736.879 734.332 737.685 734.876C738.513 735.419 739.177 736.128 739.675 737.002C740.172 737.875 740.421 738.962 740.421 740.261C740.421 741.773 739.982 743.166 739.106 744.442C738.254 745.694 736.975 746.71 735.269 747.489C733.564 748.245 731.42 748.623 728.839 748.623ZM757.48 748.056V723.254H765.864V748.056H757.48ZM784.467 748.056V723.254H791.36L801.307 739.446H797.683L807.346 723.254H814.238L814.309 748.056H806.671L806.6 734.734H807.808L801.2 745.824H797.506L790.614 734.734H792.106V748.056H784.467ZM832.928 748.056V723.254H844.901C847.221 723.254 849.222 723.632 850.905 724.388C852.61 725.144 853.924 726.231 854.848 727.648C855.772 729.041 856.233 730.695 856.233 732.608C856.233 734.521 855.772 736.175 854.848 737.568C853.924 738.962 852.61 740.049 850.905 740.828C849.222 741.584 847.221 741.962 844.901 741.962H837.582L841.313 738.383V748.056H832.928ZM841.313 739.305L837.582 735.513H844.368C845.528 735.513 846.38 735.254 846.926 734.734C847.494 734.214 847.778 733.506 847.778 732.608C847.778 731.71 847.494 731.002 846.926 730.482C846.38 729.963 845.528 729.703 844.368 729.703H837.582L841.313 725.912V739.305ZM873.549 748.056V723.254H881.933V741.572H893.159V748.056H873.549ZM910.039 748.056V723.254H930.254V729.561H918.281V741.749H930.715V748.056H910.039ZM917.713 738.49V732.466H928.797V738.49H917.713Z" fill="#1F4255"/>
</svg>
