<?xml version="1.0" encoding="UTF-8" standalone="no"?>
<svg
   width="1088"
   height="1066"
   viewBox="0 0 1088 1066"
   fill="none"
   version="1.1"
   id="svg29"
   xmlns="http://www.w3.org/2000/svg">
  <defs
     id="defs27">
    <clipPath
       id="clip0_2188_8466">
      <rect
         width="1088"
         height="1066"
         fill="white"
         id="rect24" />
    </clipPath>
  </defs>
  <g
     id="g3976"
     transform="matrix(0.68214837,0,0,0.68214837,359.12623,261.8518)">
    <path
       fill-rule="evenodd"
       clip-rule="evenodd"
       d="m 399.11303,304.71706 c 0,70.412 -57.081,127.493 -127.494,127.493 -70.413,0 -127.494,-57.081 -127.494,-127.493 0,-70.4132 57.081,-127.49406 127.494,-127.49406 14.727,0 28.871,2.49692 42.031,7.09052 l -15.266,37.12004 c -8.436,-2.7088 -17.43,-4.1716 -26.765,-4.1716 -48.3,0 -87.454,39.1547 -87.454,87.4541 0,48.3 39.154,87.455 87.454,87.455 48.3,0 87.454,-39.155 87.454,-87.455 0,-11.838 -2.352,-23.127 -6.614,-33.4247 l 29.862,-29.8622 c 10.684,18.6485 16.792,40.2549 16.792,63.2879 z"
       fill="#2f4052"
       id="path2344" />
    <path
       fill-rule="evenodd"
       clip-rule="evenodd"
       d="m 374.51903,229.42816 c -12.271,-16.7417 -28.529,-30.3779 -47.375,-39.5099 l -15.654,36.9427 c 0.777,0.399 1.548,0.8093 2.312,1.2307 l 3.336,1.6063 -62.162,62.1651 29.076,28.87 z"
       fill="#8edb50"
       id="path2346" />
    <path
       d="m -157.68377,565.86106 c -6.3662,0 -12.2777,-0.983 -17.7345,-2.948 -5.381,-2.041 -10.08,-4.913 -14.0967,-8.617 -3.941,-3.704 -7.01048,-8.088 -9.20835,-13.152 -2.19787,-5.064 -3.29681,-10.658 -3.29681,-16.78 0,-6.122 1.09894,-11.716 3.29681,-16.78 2.19787,-5.064 5.26735,-9.448 9.20835,-13.152 4.0167,-3.704 8.7157,-6.538 14.0967,-8.503 5.4568,-2.041 11.3683,-3.062 17.7345,-3.062 7.8063,0 14.703,1.361 20.6904,4.082 6.063,2.721 11.065,6.652 15.0061,11.791 l -16.9388,15.08 c -2.3495,-2.948 -4.9642,-5.216 -7.8441,-6.803 -2.8042,-1.663 -5.9874,-2.494 -9.5494,-2.494 -2.8042,0 -5.3431,0.453 -7.6167,1.36 -2.2737,0.907 -4.2441,2.23 -5.9116,3.969 -1.5915,1.738 -2.842,3.854 -3.7515,6.349 -0.9095,2.418 -1.3642,5.14 -1.3642,8.163 0,3.023 0.4547,5.782 1.3642,8.277 0.9095,2.418 2.16,4.497 3.7515,6.235 1.6675,1.739 3.6379,3.062 5.9116,3.969 2.2736,0.907 4.8125,1.36 7.6167,1.36 3.562,0 6.7452,-0.793 9.5494,-2.381 2.8799,-1.663 5.4946,-3.968 7.8441,-6.916 l 16.9388,15.08 c -3.9411,5.064 -8.9431,8.994 -15.0061,11.791 -5.9874,2.721 -12.8841,4.082 -20.6904,4.082 z m 76.3848,0 c -6.442,0 -12.429,-1.021 -17.961,-3.062 -5.457,-2.04 -10.1941,-4.913 -14.2108,-8.616 -4.0168,-3.78 -7.1621,-8.201 -9.4357,-13.266 -2.1978,-5.064 -3.2968,-10.582 -3.2968,-16.553 0,-6.047 1.099,-11.565 3.2968,-16.553 2.2736,-5.065 5.4189,-9.448 9.4357,-13.152 4.0167,-3.779 8.7538,-6.689 14.2108,-8.73 5.532,-2.041 11.519,-3.062 17.961,-3.062 6.518,0 12.506,1.021 17.962,3.062 5.457,2.041 10.194,4.951 14.211,8.73 4.017,3.704 7.124,8.087 9.322,13.152 2.273,4.988 3.41,10.506 3.41,16.553 0,5.971 -1.137,11.489 -3.41,16.553 -2.198,5.065 -5.305,9.486 -9.322,13.266 -4.017,3.703 -8.754,6.576 -14.211,8.616 -5.456,2.041 -11.444,3.062 -17.962,3.062 z m 0,-21.656 c 2.502,0 4.813,-0.453 6.935,-1.36 2.198,-0.907 4.093,-2.192 5.684,-3.855 1.668,-1.739 2.956,-3.817 3.866,-6.236 0.909,-2.494 1.364,-5.291 1.364,-8.39 0,-3.099 -0.455,-5.858 -1.364,-8.277 -0.91,-2.494 -2.198,-4.572 -3.866,-6.235 -1.591,-1.739 -3.486,-3.062 -5.684,-3.969 -2.122,-0.907 -4.433,-1.36 -6.935,-1.36 -2.501,0 -4.85,0.453 -7.048,1.36 -2.122,0.907 -4.017,2.23 -5.684,3.969 -1.592,1.663 -2.842,3.741 -3.752,6.235 -0.909,2.419 -1.364,5.178 -1.364,8.277 0,3.099 0.455,5.896 1.364,8.39 0.91,2.419 2.16,4.497 3.752,6.236 1.667,1.663 3.562,2.948 5.684,3.855 2.198,0.907 4.547,1.36 7.048,1.36 z m 49.527,19.841 v -79.364 h 37.174 c 12.203,0 21.486,2.683 27.852,8.049 6.368,5.367 9.551,12.661 9.551,21.882 0,6.123 -1.478,11.414 -4.435,15.873 -2.954,4.384 -7.16,7.748 -12.619,10.091 -5.38,2.343 -11.784,3.515 -19.212,3.515 h -23.419 l 11.937,-10.998 v 30.952 z m 47.633,0 -19.554,-28.911 h 28.421 l 19.782,28.911 z m -20.804,-28.004 -11.937,-12.131 h 21.713 c 3.715,0 6.443,-0.832 8.187,-2.495 1.817,-1.663 2.727,-3.93 2.727,-6.803 0,-2.872 -0.91,-5.139 -2.727,-6.802 -1.744,-1.663 -4.472,-2.495 -8.187,-2.495 h -21.713 l 11.937,-12.131 z m 52.763,28.004 v -79.364 h 37.174 c 12.201,0 21.486,2.683 27.852,8.049 6.367,5.367 9.55,12.661 9.55,21.882 0,6.123 -1.478,11.414 -4.434,15.873 -2.956,4.384 -7.162,7.748 -12.619,10.091 -5.38,2.343 -11.785,3.515 -19.212,3.515 h -23.419 l 11.937,-10.998 v 30.952 z m 47.633,0 -19.554,-28.911 h 28.421 l 19.781,28.911 z m -20.804,-28.004 -11.937,-12.131 h 21.714 c 3.714,0 6.442,-0.832 8.185,-2.495 1.819,-1.663 2.728,-3.93 2.728,-6.803 0,-2.872 -0.909,-5.139 -2.728,-6.802 -1.743,-1.663 -4.471,-2.495 -8.185,-2.495 h -21.714 l 11.937,-12.131 z m 94.483,29.819 c -6.441,0 -12.429,-1.021 -17.962,-3.062 -5.457,-2.04 -10.192,-4.913 -14.21,-8.616 -4.017,-3.78 -7.162,-8.201 -9.436,-13.266 -2.197,-5.064 -3.297,-10.582 -3.297,-16.553 0,-6.047 1.1,-11.565 3.297,-16.553 2.274,-5.065 5.419,-9.448 9.436,-13.152 4.018,-3.779 8.753,-6.689 14.21,-8.73 5.533,-2.041 11.521,-3.062 17.962,-3.062 6.519,0 12.505,1.021 17.962,3.062 5.457,2.041 10.194,4.951 14.21,8.73 4.018,3.704 7.125,8.087 9.322,13.152 2.274,4.988 3.411,10.506 3.411,16.553 0,5.971 -1.137,11.489 -3.411,16.553 -2.197,5.065 -5.304,9.486 -9.322,13.266 -4.016,3.703 -8.753,6.576 -14.21,8.616 -5.457,2.041 -11.443,3.062 -17.962,3.062 z m 0,-21.656 c 2.501,0 4.814,-0.453 6.935,-1.36 2.199,-0.907 4.092,-2.192 5.684,-3.855 1.668,-1.739 2.956,-3.817 3.865,-6.236 0.909,-2.494 1.364,-5.291 1.364,-8.39 0,-3.099 -0.455,-5.858 -1.364,-8.277 -0.909,-2.494 -2.197,-4.572 -3.865,-6.235 -1.592,-1.739 -3.485,-3.062 -5.684,-3.969 -2.121,-0.907 -4.434,-1.36 -6.935,-1.36 -2.501,0 -4.849,0.453 -7.048,1.36 -2.121,0.907 -4.017,2.23 -5.685,3.969 -1.591,1.663 -2.842,3.741 -3.751,6.235 -0.91,2.419 -1.364,5.178 -1.364,8.277 0,3.099 0.454,5.896 1.364,8.39 0.909,2.419 2.16,4.497 3.751,6.236 1.668,1.663 3.564,2.948 5.685,3.855 2.199,0.907 4.547,1.36 7.048,1.36 z m 79.2,21.656 c -6.67,0 -13.113,-0.756 -19.326,-2.268 -6.216,-1.512 -11.331,-3.477 -15.348,-5.896 l 8.64,-19.501 c 3.789,2.192 7.995,3.968 12.619,5.329 4.698,1.285 9.246,1.927 13.642,1.927 2.576,0 4.585,-0.151 6.025,-0.453 1.516,-0.378 2.615,-0.869 3.297,-1.474 0.682,-0.68 1.023,-1.474 1.023,-2.381 0,-1.436 -0.796,-2.57 -2.387,-3.401 -1.592,-0.832 -3.714,-1.512 -6.366,-2.041 -2.578,-0.605 -5.42,-1.21 -8.527,-1.814 -3.108,-0.68 -6.252,-1.55 -9.435,-2.608 -3.109,-1.058 -5.988,-2.456 -8.64,-4.195 -2.578,-1.738 -4.661,-4.006 -6.253,-6.803 -1.591,-2.872 -2.387,-6.424 -2.387,-10.657 0,-4.913 1.364,-9.373 4.093,-13.379 2.803,-4.081 6.934,-7.332 12.391,-9.75 5.531,-2.419 12.391,-3.629 20.577,-3.629 5.38,0 10.686,0.567 15.915,1.701 5.23,1.134 9.928,2.872 14.097,5.216 l -8.072,19.387 c -3.941,-1.965 -7.769,-3.439 -11.482,-4.421 -3.637,-0.983 -7.201,-1.474 -10.686,-1.474 -2.577,0 -4.623,0.226 -6.139,0.68 -1.517,0.453 -2.614,1.058 -3.296,1.814 -0.608,0.756 -0.91,1.587 -0.91,2.494 0,1.361 0.796,2.457 2.387,3.288 1.592,0.756 3.676,1.399 6.253,1.928 2.652,0.529 5.531,1.096 8.64,1.7 3.183,0.605 6.327,1.437 9.436,2.495 3.106,1.058 5.948,2.456 8.526,4.195 2.652,1.738 4.775,4.006 6.366,6.802 1.592,2.797 2.387,6.274 2.387,10.431 0,4.838 -1.403,9.297 -4.206,13.379 -2.728,4.006 -6.821,7.256 -12.278,9.75 -5.456,2.419 -12.316,3.629 -20.576,3.629 z m 39.927,-1.815 v -79.364 h 26.83 v 79.364 z m 76.351,1.815 c -6.443,0 -12.429,-1.021 -17.962,-3.062 -5.457,-2.04 -10.194,-4.913 -14.21,-8.616 -4.016,-3.78 -7.162,-8.201 -9.436,-13.266 -2.197,-5.064 -3.297,-10.582 -3.297,-16.553 0,-6.047 1.1,-11.565 3.297,-16.553 2.274,-5.065 5.42,-9.448 9.436,-13.152 4.016,-3.779 8.753,-6.689 14.21,-8.73 5.533,-2.041 11.519,-3.062 17.962,-3.062 6.517,0 12.505,1.021 17.962,3.062 5.457,2.041 10.194,4.951 14.21,8.73 4.017,3.704 7.125,8.087 9.322,13.152 2.274,4.988 3.411,10.506 3.411,16.553 0,5.971 -1.137,11.489 -3.411,16.553 -2.197,5.065 -5.305,9.486 -9.322,13.266 -4.016,3.703 -8.753,6.576 -14.21,8.616 -5.457,2.041 -11.445,3.062 -17.962,3.062 z m 0,-21.656 c 2.501,0 4.812,-0.453 6.935,-1.36 2.197,-0.907 4.092,-2.192 5.684,-3.855 1.668,-1.739 2.956,-3.817 3.865,-6.236 0.91,-2.494 1.364,-5.291 1.364,-8.39 0,-3.099 -0.454,-5.858 -1.364,-8.277 -0.909,-2.494 -2.197,-4.572 -3.865,-6.235 -1.592,-1.739 -3.487,-3.062 -5.684,-3.969 -2.123,-0.907 -4.434,-1.36 -6.935,-1.36 -2.501,0 -4.851,0.453 -7.048,1.36 -2.123,0.907 -4.017,2.23 -5.684,3.969 -1.592,1.663 -2.843,3.741 -3.752,6.235 -0.909,2.419 -1.364,5.178 -1.364,8.277 0,3.099 0.455,5.896 1.364,8.39 0.909,2.419 2.16,4.497 3.752,6.236 1.667,1.663 3.561,2.948 5.684,3.855 2.197,0.907 4.547,1.36 7.048,1.36 z m 49.527,19.841 v -79.364 h 22.054 l 40.471,48.299 h -10.231 v -48.299 h 26.147 v 79.364 h -22.054 l -40.472,-48.299 h 10.232 v 48.299 z"
       fill="#2f4052"
       id="path2348" />
    <path
       d="m 542.11003,565.86106 c -6.441,0 -12.429,-1.021 -17.962,-3.062 -5.456,-2.04 -10.192,-4.913 -14.21,-8.616 -4.016,-3.78 -7.162,-8.201 -9.436,-13.266 -2.197,-5.064 -3.297,-10.582 -3.297,-16.553 0,-6.047 1.1,-11.565 3.297,-16.553 2.274,-5.065 5.42,-9.448 9.436,-13.152 4.018,-3.779 8.754,-6.689 14.21,-8.73 5.533,-2.041 11.521,-3.062 17.962,-3.062 6.519,0 12.505,1.021 17.962,3.062 5.457,2.041 10.194,4.951 14.211,8.73 4.018,3.704 7.124,8.087 9.322,13.152 2.273,4.988 3.41,10.506 3.41,16.553 0,5.971 -1.137,11.489 -3.41,16.553 -2.198,5.065 -5.304,9.486 -9.322,13.266 -4.017,3.703 -8.754,6.576 -14.211,8.616 -5.457,2.041 -11.443,3.062 -17.962,3.062 z m 0,-21.656 c 2.501,0 4.814,-0.453 6.935,-1.36 2.199,-0.907 4.092,-2.192 5.684,-3.855 1.668,-1.739 2.956,-3.817 3.865,-6.236 0.91,-2.494 1.364,-5.291 1.364,-8.39 0,-3.099 -0.454,-5.858 -1.364,-8.277 -0.909,-2.494 -2.197,-4.572 -3.865,-6.235 -1.592,-1.739 -3.485,-3.062 -5.684,-3.969 -2.121,-0.907 -4.434,-1.36 -6.935,-1.36 -2.501,0 -4.849,0.453 -7.048,1.36 -2.121,0.907 -4.016,2.23 -5.684,3.969 -1.592,1.663 -2.842,3.741 -3.752,6.235 -0.909,2.419 -1.364,5.178 -1.364,8.277 0,3.099 0.455,5.896 1.364,8.39 0.91,2.419 2.16,4.497 3.752,6.236 1.668,1.663 3.563,2.948 5.684,3.855 2.199,0.907 4.547,1.36 7.048,1.36 z m 49.529,19.841 v -79.364 h 22.054 l 40.471,48.299 h -10.231 v -48.299 h 26.147 v 79.364 h -22.054 l -40.472,-48.299 h 10.232 v 48.299 z m 86.251,0 v -79.364 h 64.686 v 20.181 h -38.311 v 39.002 h 39.789 v 20.181 z m 24.556,-30.612 v -19.274 h 35.469 v 19.274 z"
       fill="#8edb50"
       id="path2350" />
    <path
       d="m -137.56897,617.19306 v -24.802 h 8.3841 v 24.802 z m 26.9859,0 v -24.802 h 6.8921 l 12.647,15.094 h -3.197 v -15.094 h 8.171 v 24.802 h -6.892 l -12.647,-15.094 h 3.197 v 15.094 z m 52.3901,0.567 c -2.084,0 -4.097,-0.236 -6.039,-0.709 -1.942,-0.472 -3.541,-1.086 -4.796,-1.842 l 2.7,-6.094 c 1.184,0.685 2.499,1.24 3.943,1.665 1.469,0.402 2.89,0.602 4.263,0.602 0.806,0 1.433,-0.047 1.883,-0.141 0.474,-0.119 0.817,-0.272 1.031,-0.461 0.213,-0.213 0.319,-0.461 0.319,-0.744 0,-0.449 -0.248,-0.803 -0.746,-1.063 -0.497,-0.26 -1.16,-0.472 -1.989,-0.638 -0.805,-0.189 -1.694,-0.378 -2.665,-0.567 -0.971,-0.212 -1.954,-0.484 -2.948,-0.815 -0.971,-0.33 -1.871,-0.767 -2.7,-1.31 -0.805,-0.544 -1.457,-1.252 -1.954,-2.126 -0.498,-0.898 -0.746,-2.008 -0.746,-3.331 0,-1.535 0.426,-2.929 1.279,-4.181 0.876,-1.275 2.167,-2.291 3.872,-3.047 1.729,-0.756 3.872,-1.133 6.43,-1.133 1.682,0 3.34,0.177 4.974,0.531 1.634,0.354 3.103,0.898 4.405,1.63 l -2.522,6.058 c -1.232,-0.614 -2.428,-1.074 -3.588,-1.381 -1.137,-0.307 -2.25,-0.461 -3.34,-0.461 -0.805,0 -1.445,0.071 -1.918,0.213 -0.474,0.141 -0.817,0.33 -1.03,0.567 -0.19,0.236 -0.285,0.496 -0.285,0.779 0,0.425 0.249,0.768 0.746,1.027 0.498,0.237 1.149,0.438 1.954,0.603 0.829,0.165 1.729,0.342 2.7,0.531 0.995,0.189 1.978,0.449 2.949,0.78 0.971,0.33 1.859,0.767 2.664,1.311 0.829,0.543 1.492,1.252 1.99,2.126 0.497,0.873 0.746,1.96 0.746,3.259 0,1.512 -0.438,2.905 -1.315,4.181 -0.852,1.252 -2.131,2.268 -3.836,3.047 -1.706,0.756 -3.849,1.134 -6.431,1.134 z m 28.642,-0.567 v -24.802 h 11.973 c 2.321,0 4.321,0.378 6.004,1.134 1.705,0.756 3.019,1.843 3.943,3.26 0.924,1.393 1.386,3.047 1.386,4.96 0,1.913 -0.462,3.567 -1.386,4.96 -0.924,1.394 -2.238,2.481 -3.943,3.26 -1.683,0.756 -3.683,1.134 -6.004,1.134 h -7.319 l 3.731,-3.579 v 9.673 z m 8.385,-8.751 -3.731,-3.792 h 6.786 c 1.16,0 2.012,-0.259 2.558,-0.779 0.568,-0.52 0.852,-1.228 0.852,-2.126 0,-0.898 -0.284,-1.606 -0.852,-2.126 -0.546,-0.519 -1.398,-0.779 -2.558,-0.779 h -6.786 l 3.731,-3.791 z m 32.236,8.751 v -24.802 h 20.214 v 6.307 h -11.972 v 12.188 h 12.434 v 6.307 z m 7.673,-9.566 v -6.024 h 11.085 v 6.024 z m 43.657,10.133 c -1.99,0 -3.837,-0.307 -5.543,-0.921 -1.682,-0.638 -3.149,-1.536 -4.405,-2.693 -1.231,-1.157 -2.19,-2.528 -2.877,-4.11 -0.688,-1.583 -1.031,-3.331 -1.031,-5.244 0,-1.913 0.343,-3.661 1.031,-5.244 0.687,-1.582 1.646,-2.952 2.877,-4.11 1.256,-1.157 2.723,-2.043 4.405,-2.657 1.706,-0.638 3.553,-0.956 5.543,-0.956 2.438,0 4.595,0.425 6.465,1.275 1.896,0.85 3.459,2.079 4.69,3.685 l -5.294,4.712 c -0.733,-0.921 -1.55,-1.63 -2.451,-2.126 -0.876,-0.519 -1.87,-0.779 -2.984,-0.779 -0.876,0 -1.67,0.141 -2.38,0.425 -0.711,0.283 -1.327,0.697 -1.848,1.24 -0.497,0.543 -0.888,1.205 -1.172,1.984 -0.284,0.756 -0.426,1.606 -0.426,2.551 0,0.945 0.142,1.807 0.426,2.587 0.284,0.756 0.675,1.405 1.172,1.948 0.521,0.544 1.137,0.957 1.848,1.24 0.71,0.284 1.504,0.426 2.38,0.426 1.114,0 2.108,-0.248 2.984,-0.744 0.901,-0.52 1.718,-1.241 2.451,-2.162 l 5.294,4.713 c -1.231,1.582 -2.794,2.81 -4.69,3.684 -1.87,0.851 -4.027,1.276 -6.465,1.276 z m 33.124,-0.567 v -18.318 h -7.283 v -6.484 h 22.95 v 6.484 h -7.283 v 18.318 z m 32.41,0 v -24.802 h 8.384 v 24.802 z m 40.026,0.567 c -2.015,0 -3.885,-0.319 -5.613,-0.957 -1.706,-0.638 -3.187,-1.535 -4.441,-2.693 -1.256,-1.181 -2.238,-2.562 -2.949,-4.145 -0.687,-1.582 -1.03,-3.307 -1.03,-5.173 0,-1.89 0.343,-3.614 1.03,-5.173 0.711,-1.582 1.693,-2.952 2.949,-4.11 1.254,-1.181 2.735,-2.09 4.441,-2.728 1.728,-0.638 3.598,-0.956 5.613,-0.956 2.035,0 3.907,0.318 5.613,0.956 1.705,0.638 3.185,1.547 4.44,2.728 1.255,1.158 2.226,2.528 2.914,4.11 0.71,1.559 1.065,3.283 1.065,5.173 0,1.866 -0.355,3.591 -1.065,5.173 -0.688,1.583 -1.659,2.964 -2.914,4.145 -1.255,1.158 -2.735,2.055 -4.44,2.693 -1.706,0.638 -3.578,0.957 -5.613,0.957 z m 0,-6.767 c 0.781,0 1.502,-0.142 2.167,-0.426 0.685,-0.283 1.279,-0.685 1.776,-1.204 0.52,-0.544 0.924,-1.193 1.208,-1.949 0.284,-0.779 0.426,-1.653 0.426,-2.622 0,-0.968 -0.142,-1.83 -0.426,-2.586 -0.284,-0.78 -0.688,-1.429 -1.208,-1.949 -0.497,-0.543 -1.091,-0.957 -1.776,-1.24 -0.665,-0.284 -1.386,-0.425 -2.167,-0.425 -0.782,0 -1.517,0.141 -2.203,0.425 -0.664,0.283 -1.256,0.697 -1.776,1.24 -0.498,0.52 -0.888,1.169 -1.173,1.949 -0.284,0.756 -0.426,1.618 -0.426,2.586 0,0.969 0.142,1.843 0.426,2.622 0.285,0.756 0.675,1.405 1.173,1.949 0.52,0.519 1.112,0.921 1.776,1.204 0.686,0.284 1.421,0.426 2.203,0.426 z m 31.641,6.2 v -24.802 h 6.892 l 12.647,15.094 h -3.197 v -15.094 h 8.171 v 24.802 h -6.892 l -12.648,-15.094 h 3.198 v 15.094 z m 68.334,0 v -24.802 h 6.892 l 9.947,16.192 h -3.623 l 9.663,-16.192 h 6.892 l 0.071,24.802 h -7.638 l -0.071,-13.322 h 1.208 l -6.608,11.09 h -3.695 l -6.892,-11.09 h 1.492 v 13.322 z m 45.761,0 10.871,-24.802 h 8.242 l 10.871,24.802 h -8.668 l -8.029,-20.833 h 3.268 l -8.029,20.833 z m 6.466,-4.323 2.131,-6.023 h 11.44 l 2.131,6.023 z m 39.421,4.323 v -24.802 h 12.257 c 2.771,0 5.211,0.508 7.318,1.524 2.108,0.992 3.755,2.409 4.938,4.252 1.185,1.842 1.776,4.051 1.776,6.625 0,2.551 -0.591,4.76 -1.776,6.626 -1.183,1.842 -2.83,3.271 -4.938,4.287 -2.107,0.992 -4.547,1.488 -7.318,1.488 z m 8.384,-6.519 h 3.517 c 1.185,0 2.215,-0.225 3.091,-0.674 0.901,-0.448 1.599,-1.11 2.096,-1.984 0.497,-0.897 0.746,-1.972 0.746,-3.224 0,-1.275 -0.249,-2.35 -0.746,-3.224 -0.497,-0.874 -1.195,-1.535 -2.096,-1.984 -0.876,-0.449 -1.906,-0.673 -3.091,-0.673 h -3.517 z m 35.533,6.519 v -24.802 h 20.215 v 6.307 h -11.973 v 12.188 h 12.434 v 6.307 z m 7.674,-9.566 v -6.024 h 11.084 v 6.024 z m 65.284,10.133 c -2.085,0 -4.098,-0.236 -6.039,-0.709 -1.943,-0.472 -3.542,-1.086 -4.796,-1.842 l 2.7,-6.094 c 1.183,0.685 2.497,1.24 3.943,1.665 1.467,0.402 2.888,0.602 4.263,0.602 0.805,0 1.432,-0.047 1.883,-0.141 0.473,-0.119 0.817,-0.272 1.03,-0.461 0.213,-0.213 0.32,-0.461 0.32,-0.744 0,-0.449 -0.249,-0.803 -0.746,-1.063 -0.497,-0.26 -1.162,-0.472 -1.989,-0.638 -0.807,-0.189 -1.695,-0.378 -2.665,-0.567 -0.972,-0.212 -1.954,-0.484 -2.948,-0.815 -0.972,-0.33 -1.873,-0.767 -2.701,-1.31 -0.806,-0.544 -1.456,-1.252 -1.953,-2.126 -0.498,-0.898 -0.747,-2.008 -0.747,-3.331 0,-1.535 0.427,-2.929 1.279,-4.181 0.876,-1.275 2.168,-2.291 3.873,-3.047 1.728,-0.756 3.872,-1.133 6.43,-1.133 1.68,0 3.339,0.177 4.974,0.531 1.634,0.354 3.101,0.898 4.405,1.63 l -2.523,6.058 c -1.232,-0.614 -2.428,-1.074 -3.588,-1.381 -1.136,-0.307 -2.25,-0.461 -3.339,-0.461 -0.806,0 -1.446,0.071 -1.918,0.213 -0.475,0.141 -0.818,0.33 -1.031,0.567 -0.19,0.236 -0.284,0.496 -0.284,0.779 0,0.425 0.249,0.768 0.746,1.027 0.497,0.237 1.148,0.438 1.954,0.603 0.828,0.165 1.728,0.342 2.7,0.531 0.995,0.189 1.977,0.449 2.949,0.78 0.97,0.33 1.858,0.767 2.664,1.311 0.828,0.543 1.492,1.252 1.99,2.126 0.497,0.873 0.746,1.96 0.746,3.259 0,1.512 -0.439,2.905 -1.315,4.181 -0.852,1.252 -2.131,2.268 -3.837,3.047 -1.705,0.756 -3.849,1.134 -6.43,1.134 z m 28.641,-0.567 v -24.802 h 8.384 v 24.802 z m 26.987,0 v -24.802 h 6.893 l 9.947,16.192 h -3.624 l 9.663,-16.192 h 6.892 l 0.071,24.802 h -7.638 l -0.071,-13.322 h 1.208 l -6.608,11.09 h -3.694 l -6.892,-11.09 h 1.492 v 13.322 z m 48.461,0 v -24.802 h 11.973 c 2.32,0 4.321,0.378 6.004,1.134 1.705,0.756 3.019,1.843 3.943,3.26 0.924,1.393 1.385,3.047 1.385,4.96 0,1.913 -0.461,3.567 -1.385,4.96 -0.924,1.394 -2.238,2.481 -3.943,3.26 -1.683,0.756 -3.684,1.134 -6.004,1.134 h -7.319 l 3.731,-3.579 v 9.673 z m 8.385,-8.751 -3.731,-3.792 h 6.786 c 1.16,0 2.012,-0.259 2.558,-0.779 0.568,-0.52 0.852,-1.228 0.852,-2.126 0,-0.898 -0.284,-1.606 -0.852,-2.126 -0.546,-0.519 -1.398,-0.779 -2.558,-0.779 h -6.786 l 3.731,-3.791 z m 32.236,8.751 v -24.802 h 8.384 v 18.318 h 11.226 v 6.484 z m 36.49,0 v -24.802 h 20.215 v 6.307 h -11.973 v 12.188 h 12.434 v 6.307 z m 7.674,-9.566 v -6.024 h 11.084 v 6.024 z"
       fill="#2f4052"
       id="path2352" />
  </g>
</svg>
