<svg width="32" height="33" viewBox="0 0 32 33" fill="none" xmlns="http://www.w3.org/2000/svg">
<g clip-path="url(#clip0_152_17803)">
<path d="M11.1475 1.5525C7.95019 2.66167 5.19285 4.76691 3.28046 7.559C1.36808 10.3511 0.401465 13.6829 0.522592 17.0649C0.643719 20.447 1.84621 23.701 3.95343 26.3492C6.06065 28.9973 8.96153 30.8999 12.23 31.7775C14.8798 32.4612 17.656 32.4913 20.32 31.865C22.7333 31.3229 24.9644 30.1634 26.795 28.5C28.7002 26.7159 30.0831 24.4462 30.795 21.935C31.5688 19.2042 31.7065 16.3323 31.1975 13.54H16.3175V19.7125H24.935C24.7628 20.697 24.3937 21.6366 23.8499 22.4751C23.306 23.3136 22.5986 24.0338 21.77 24.5925C20.7177 25.2886 19.5315 25.7569 18.2875 25.9675C17.0398 26.1995 15.7601 26.1995 14.5125 25.9675C13.248 25.7061 12.0517 25.1841 11 24.435C9.31036 23.239 8.04168 21.5398 7.37499 19.58C6.69702 17.5835 6.69702 15.419 7.37499 13.4225C7.84955 12.023 8.63407 10.7488 9.66999 9.69499C10.8555 8.46686 12.3563 7.58899 14.0079 7.15769C15.6594 6.72638 17.3979 6.75832 19.0325 7.24999C20.3094 7.64197 21.4771 8.32684 22.4425 9.24999C23.4142 8.28333 24.3842 7.31416 25.3525 6.34249C25.8525 5.81999 26.3975 5.32249 26.89 4.78749C25.4164 3.41619 23.6867 2.34914 21.8 1.6475C18.3642 0.39997 14.6049 0.366444 11.1475 1.5525Z" fill="white"/>
<path d="M11.1475 1.55249C14.6047 0.365632 18.364 0.398276 21.8 1.64499C23.687 2.3514 25.416 3.42358 26.8875 4.79999C26.3875 5.33499 25.86 5.83499 25.35 6.35499C24.38 7.32332 23.4108 8.28832 22.4425 9.24999C21.4771 8.32683 20.3094 7.64197 19.0325 7.24999C17.3984 6.75659 15.6601 6.72281 14.0081 7.15234C12.3561 7.58188 10.8543 8.45814 9.6675 9.68499C8.63159 10.7388 7.84707 12.013 7.3725 13.4125L2.19 9.39999C4.04502 5.72139 7.25688 2.90755 11.1475 1.55249Z" fill="#E33629"/>
<path d="M0.814998 13.375C1.09355 11.9945 1.55601 10.6576 2.19 9.40002L7.3725 13.4225C6.69453 15.419 6.69453 17.5835 7.3725 19.58C5.64583 20.9134 3.91833 22.2534 2.19 23.6C0.602874 20.4408 0.118829 16.8413 0.814998 13.375Z" fill="#F8BD00"/>
<path d="M16.3175 13.5375H31.1975C31.7065 16.3298 31.5688 19.2016 30.795 21.9325C30.0831 24.4437 28.7002 26.7133 26.795 28.4975C25.1225 27.1925 23.4425 25.8975 21.77 24.5925C22.5992 24.0332 23.3069 23.3122 23.8508 22.4728C24.3946 21.6334 24.7634 20.6928 24.935 19.7075H16.3175C16.315 17.6525 16.3175 15.595 16.3175 13.5375Z" fill="#587DBD"/>
<path d="M2.1875 23.6C3.91583 22.2667 5.64333 20.9267 7.37 19.58C8.03802 21.5405 9.30851 23.2398 11 24.435C12.055 25.1807 13.2538 25.6983 14.52 25.955C15.7676 26.187 17.0474 26.187 18.295 25.955C19.539 25.7444 20.7252 25.2761 21.7775 24.58C23.45 25.885 25.13 27.18 26.8025 28.485C24.9722 30.1493 22.741 31.3097 20.3275 31.8525C17.6635 32.4788 14.8873 32.4488 12.2375 31.765C10.1418 31.2054 8.18419 30.219 6.4875 28.8675C4.69165 27.4417 3.22489 25.6449 2.1875 23.6Z" fill="#319F43"/>
</g>
<defs>
<clipPath id="clip0_152_17803">
<rect width="32" height="32" fill="white" transform="translate(0 0.5)"/>
</clipPath>
</defs>
</svg>
