<?xml version="1.0" encoding="UTF-8" standalone="no"?>
<svg
   width="946.07422"
   height="82.994003"
   viewBox="0 0 946.07422 82.994006"
   fill="none"
   version="1.1"
   id="svg28"
   xmlns="http://www.w3.org/2000/svg">
  <defs
     id="defs32" />
  <path
     d="m 44.3364,82.994 c -6.3662,0 -12.2777,-0.983 -17.7345,-2.948 -5.381,-2.041 -10.08,-4.913 -14.0967,-8.617 C 8.5642,67.725 5.4947,63.341 3.2968,58.277 1.099,53.213 0,47.619 0,41.497 0,35.375 1.099,29.781 3.2968,24.717 5.4947,19.653 8.5642,15.269 12.5052,11.565 16.5219,7.861 21.2209,5.027 26.6019,3.062 32.0587,1.021 37.9702,0 44.3364,0 c 7.8068,0 14.7028,1.361 20.6908,4.082 6.063,2.721 11.065,6.652 15.006,11.791 l -16.939,15.08 c -2.35,-2.948 -4.964,-5.216 -7.844,-6.803 -2.804,-1.663 -5.9876,-2.494 -9.5496,-2.494 -2.8042,0 -5.3431,0.453 -7.6167,1.36 -2.2737,0.907 -4.2441,2.23 -5.9116,3.969 -1.5915,1.738 -2.842,3.854 -3.7515,6.349 -0.9095,2.418 -1.3642,5.14 -1.3642,8.163 0,3.023 0.4547,5.782 1.3642,8.277 0.9095,2.418 2.16,4.497 3.7515,6.235 1.6675,1.739 3.6379,3.062 5.9116,3.969 2.2736,0.907 4.8125,1.36 7.6167,1.36 3.562,0 6.7456,-0.793 9.5496,-2.381 2.88,-1.663 5.494,-3.968 7.844,-6.916 l 16.939,15.08 c -3.941,5.064 -8.943,8.994 -15.006,11.791 -5.988,2.721 -12.884,4.082 -20.6908,4.082 z m 76.3848,0 c -6.442,0 -12.429,-1.021 -17.961,-3.062 -5.457,-2.04 -10.194,-4.913 -14.211,-8.616 -4.017,-3.78 -7.162,-8.201 -9.436,-13.266 -2.197,-5.064 -3.296,-10.582 -3.296,-16.553 0,-6.047 1.099,-11.565 3.296,-16.553 2.274,-5.065 5.419,-9.448 9.436,-13.152 4.017,-3.779 8.754,-6.689 14.211,-8.73 5.532,-2.041 11.519,-3.062 17.961,-3.062 6.518,0 12.506,1.021 17.962,3.062 5.457,2.041 10.194,4.951 14.211,8.73 4.017,3.704 7.124,8.087 9.322,13.152 2.273,4.988 3.41,10.506 3.41,16.553 0,5.971 -1.137,11.489 -3.41,16.553 -2.198,5.065 -5.305,9.486 -9.322,13.266 -4.017,3.703 -8.754,6.576 -14.211,8.616 -5.456,2.041 -11.444,3.062 -17.962,3.062 z m 0,-21.656 c 2.502,0 4.813,-0.453 6.935,-1.36 2.198,-0.907 4.093,-2.192 5.684,-3.855 1.668,-1.739 2.956,-3.817 3.866,-6.236 0.909,-2.494 1.364,-5.291 1.364,-8.39 0,-3.099 -0.455,-5.858 -1.364,-8.277 -0.91,-2.494 -2.198,-4.572 -3.866,-6.235 -1.591,-1.739 -3.486,-3.062 -5.684,-3.969 -2.122,-0.907 -4.433,-1.36 -6.935,-1.36 -2.501,0 -4.85,0.453 -7.048,1.36 -2.122,0.907 -4.017,2.23 -5.684,3.969 -1.592,1.663 -2.842,3.741 -3.752,6.235 -0.909,2.419 -1.364,5.178 -1.364,8.277 0,3.099 0.455,5.896 1.364,8.39 0.91,2.419 2.16,4.497 3.752,6.236 1.667,1.663 3.562,2.948 5.684,3.855 2.198,0.907 4.547,1.36 7.048,1.36 z m 49.527,19.841 V 1.815 h 37.174 c 12.203,0 21.486,2.683 27.852,8.049 6.368,5.367 9.551,12.661 9.551,21.882 0,6.123 -1.478,11.414 -4.435,15.873 -2.954,4.384 -7.16,7.748 -12.619,10.091 -5.38,2.343 -11.784,3.515 -19.212,3.515 h -23.419 l 11.937,-10.998 v 30.952 z m 47.633,0 -19.554,-28.911 h 28.421 l 19.782,28.911 z m -20.804,-28.004 -11.937,-12.131 h 21.713 c 3.715,0 6.443,-0.832 8.187,-2.495 1.817,-1.663 2.727,-3.93 2.727,-6.803 0,-2.872 -0.91,-5.139 -2.727,-6.802 -1.744,-1.663 -4.472,-2.495 -8.187,-2.495 h -21.713 l 11.937,-12.131 z m 52.763,28.004 V 1.815 h 37.174 c 12.201,0 21.486,2.683 27.852,8.049 6.367,5.367 9.55,12.661 9.55,21.882 0,6.123 -1.478,11.414 -4.434,15.873 -2.956,4.384 -7.162,7.748 -12.619,10.091 -5.38,2.343 -11.785,3.515 -19.212,3.515 h -23.419 l 11.937,-10.998 v 30.952 z m 47.633,0 -19.554,-28.911 h 28.421 l 19.781,28.911 z m -20.804,-28.004 -11.937,-12.131 h 21.714 c 3.714,0 6.442,-0.832 8.185,-2.495 1.819,-1.663 2.728,-3.93 2.728,-6.803 0,-2.872 -0.909,-5.139 -2.728,-6.802 -1.743,-1.663 -4.471,-2.495 -8.185,-2.495 h -21.714 l 11.937,-12.131 z m 94.483,29.819 c -6.441,0 -12.429,-1.021 -17.962,-3.062 -5.457,-2.04 -10.192,-4.913 -14.21,-8.616 -4.017,-3.78 -7.162,-8.201 -9.436,-13.266 -2.197,-5.064 -3.297,-10.582 -3.297,-16.553 0,-6.047 1.1,-11.565 3.297,-16.553 2.274,-5.065 5.419,-9.448 9.436,-13.152 4.018,-3.779 8.753,-6.689 14.21,-8.73 5.533,-2.041 11.521,-3.062 17.962,-3.062 6.519,0 12.505,1.021 17.962,3.062 5.457,2.041 10.194,4.951 14.21,8.73 4.018,3.704 7.125,8.087 9.322,13.152 2.274,4.988 3.411,10.506 3.411,16.553 0,5.971 -1.137,11.489 -3.411,16.553 -2.197,5.065 -5.304,9.486 -9.322,13.266 -4.016,3.703 -8.753,6.576 -14.21,8.616 -5.457,2.041 -11.443,3.062 -17.962,3.062 z m 0,-21.656 c 2.501,0 4.814,-0.453 6.935,-1.36 2.199,-0.907 4.092,-2.192 5.684,-3.855 1.668,-1.739 2.956,-3.817 3.865,-6.236 0.909,-2.494 1.364,-5.291 1.364,-8.39 0,-3.099 -0.455,-5.858 -1.364,-8.277 -0.909,-2.494 -2.197,-4.572 -3.865,-6.235 -1.592,-1.739 -3.485,-3.062 -5.684,-3.969 -2.121,-0.907 -4.434,-1.36 -6.935,-1.36 -2.501,0 -4.849,0.453 -7.048,1.36 -2.121,0.907 -4.017,2.23 -5.685,3.969 -1.591,1.663 -2.842,3.741 -3.751,6.235 -0.91,2.419 -1.364,5.178 -1.364,8.277 0,3.099 0.454,5.896 1.364,8.39 0.909,2.419 2.16,4.497 3.751,6.236 1.668,1.663 3.564,2.948 5.685,3.855 2.199,0.907 4.547,1.36 7.048,1.36 z m 79.2,21.656 c -6.67,0 -13.113,-0.756 -19.326,-2.268 -6.216,-1.512 -11.331,-3.477 -15.348,-5.896 l 8.64,-19.501 c 3.789,2.192 7.995,3.968 12.619,5.329 4.698,1.285 9.246,1.927 13.642,1.927 2.576,0 4.585,-0.151 6.025,-0.453 1.516,-0.378 2.615,-0.869 3.297,-1.474 0.682,-0.68 1.023,-1.474 1.023,-2.381 0,-1.436 -0.796,-2.57 -2.387,-3.401 -1.592,-0.832 -3.714,-1.512 -6.366,-2.041 -2.578,-0.605 -5.42,-1.21 -8.527,-1.814 -3.108,-0.68 -6.252,-1.55 -9.435,-2.608 -3.109,-1.058 -5.988,-2.456 -8.64,-4.195 -2.578,-1.738 -4.661,-4.006 -6.253,-6.803 -1.591,-2.872 -2.387,-6.424 -2.387,-10.657 0,-4.913 1.364,-9.373 4.093,-13.379 2.803,-4.081 6.934,-7.332 12.391,-9.75 C 438.9442,1.21 445.8042,0 453.9902,0 c 5.38,0 10.686,0.567 15.915,1.701 5.23,1.134 9.928,2.872 14.097,5.216 l -8.072,19.387 c -3.941,-1.965 -7.769,-3.439 -11.482,-4.421 -3.637,-0.983 -7.201,-1.474 -10.686,-1.474 -2.577,0 -4.623,0.226 -6.139,0.68 -1.517,0.453 -2.614,1.058 -3.296,1.814 -0.608,0.756 -0.91,1.587 -0.91,2.494 0,1.361 0.796,2.457 2.387,3.288 1.592,0.756 3.676,1.399 6.253,1.928 2.652,0.529 5.531,1.096 8.64,1.7 3.183,0.605 6.327,1.437 9.436,2.495 3.106,1.058 5.948,2.456 8.526,4.195 2.652,1.738 4.775,4.006 6.366,6.802 1.592,2.797 2.387,6.274 2.387,10.431 0,4.838 -1.403,9.297 -4.206,13.379 -2.728,4.006 -6.821,7.256 -12.278,9.75 -5.456,2.419 -12.316,3.629 -20.576,3.629 z m 39.927,-1.815 V 1.815 h 26.83 v 79.364 z m 76.351,1.815 c -6.443,0 -12.429,-1.021 -17.962,-3.062 -5.457,-2.04 -10.194,-4.913 -14.21,-8.616 -4.016,-3.78 -7.162,-8.201 -9.436,-13.266 -2.197,-5.064 -3.297,-10.582 -3.297,-16.553 0,-6.047 1.1,-11.565 3.297,-16.553 2.274,-5.065 5.42,-9.448 9.436,-13.152 4.016,-3.779 8.753,-6.689 14.21,-8.73 5.533,-2.041 11.519,-3.062 17.962,-3.062 6.517,0 12.505,1.021 17.962,3.062 5.457,2.041 10.194,4.951 14.21,8.73 4.017,3.704 7.125,8.087 9.322,13.152 2.274,4.988 3.411,10.506 3.411,16.553 0,5.971 -1.137,11.489 -3.411,16.553 -2.197,5.065 -5.305,9.486 -9.322,13.266 -4.016,3.703 -8.753,6.576 -14.21,8.616 -5.457,2.041 -11.445,3.062 -17.962,3.062 z m 0,-21.656 c 2.501,0 4.812,-0.453 6.935,-1.36 2.197,-0.907 4.092,-2.192 5.684,-3.855 1.668,-1.739 2.956,-3.817 3.865,-6.236 0.91,-2.494 1.364,-5.291 1.364,-8.39 0,-3.099 -0.454,-5.858 -1.364,-8.277 -0.909,-2.494 -2.197,-4.572 -3.865,-6.235 -1.592,-1.739 -3.487,-3.062 -5.684,-3.969 -2.123,-0.907 -4.434,-1.36 -6.935,-1.36 -2.501,0 -4.851,0.453 -7.048,1.36 -2.123,0.907 -4.017,2.23 -5.684,3.969 -1.592,1.663 -2.843,3.741 -3.752,6.235 -0.909,2.419 -1.364,5.178 -1.364,8.277 0,3.099 0.455,5.896 1.364,8.39 0.909,2.419 2.16,4.497 3.752,6.236 1.667,1.663 3.561,2.948 5.684,3.855 2.197,0.907 4.547,1.36 7.048,1.36 z m 49.527,19.841 V 1.815 h 22.054 l 40.471,48.299 h -10.231 V 1.815 h 26.147 v 79.364 h -22.054 L 632.0722,32.88 h 10.232 v 48.299 z"
     fill="#1f4255"
     id="path22" />
  <path
     d="m 744.1302,82.994 c -6.441,0 -12.429,-1.021 -17.962,-3.062 -5.456,-2.04 -10.192,-4.913 -14.21,-8.616 -4.016,-3.78 -7.162,-8.201 -9.436,-13.266 -2.197,-5.064 -3.297,-10.582 -3.297,-16.553 0,-6.047 1.1,-11.565 3.297,-16.553 2.274,-5.065 5.42,-9.448 9.436,-13.152 4.018,-3.779 8.754,-6.689 14.21,-8.73 5.533,-2.041 11.521,-3.062 17.962,-3.062 6.519,0 12.505,1.021 17.962,3.062 5.457,2.041 10.194,4.951 14.211,8.73 4.018,3.704 7.124,8.087 9.322,13.152 2.273,4.988 3.41,10.506 3.41,16.553 0,5.971 -1.137,11.489 -3.41,16.553 -2.198,5.065 -5.304,9.486 -9.322,13.266 -4.017,3.703 -8.754,6.576 -14.211,8.616 -5.457,2.041 -11.443,3.062 -17.962,3.062 z m 0,-21.656 c 2.501,0 4.814,-0.453 6.935,-1.36 2.199,-0.907 4.092,-2.192 5.684,-3.855 1.668,-1.739 2.956,-3.817 3.865,-6.236 0.91,-2.494 1.364,-5.291 1.364,-8.39 0,-3.099 -0.454,-5.858 -1.364,-8.277 -0.909,-2.494 -2.197,-4.572 -3.865,-6.235 -1.592,-1.739 -3.485,-3.062 -5.684,-3.969 -2.121,-0.907 -4.434,-1.36 -6.935,-1.36 -2.501,0 -4.849,0.453 -7.048,1.36 -2.121,0.907 -4.016,2.23 -5.684,3.969 -1.592,1.663 -2.842,3.741 -3.752,6.235 -0.909,2.419 -1.364,5.178 -1.364,8.277 0,3.099 0.455,5.896 1.364,8.39 0.91,2.419 2.16,4.497 3.752,6.236 1.668,1.663 3.563,2.948 5.684,3.855 2.199,0.907 4.547,1.36 7.048,1.36 z m 49.529,19.841 V 1.815 h 22.054 l 40.471,48.299 h -10.231 V 1.815 h 26.147 v 79.364 h -22.054 L 809.5742,32.88 h 10.232 v 48.299 z m 86.251,0 V 1.815 h 64.686 v 20.181 h -38.311 v 39.002 h 39.789 v 20.181 z m 24.556,-30.612 V 31.293 h 35.469 v 19.274 z"
     fill="#6dda43"
     id="path24" />
</svg>
