<svg width="829" height="81" viewBox="0 0 829 81" fill="none" xmlns="http://www.w3.org/2000/svg">
<path d="M33.3288 81C26.4764 81 20.557 79.2921 15.5704 75.8762C10.5838 72.4603 6.7336 67.6635 4.01981 61.4859C1.33994 55.3082 0 48.0949 0 39.8459C0 31.5606 1.33994 24.4563 4.01981 18.533C6.69968 12.5734 10.5329 7.99462 15.5195 4.79677C20.5061 1.59893 26.4425 0 33.3288 0C38.8581 0 43.7769 1.1992 48.085 3.59758C52.4271 5.95963 55.9211 9.19381 58.567 13.3001C61.2469 17.4065 62.8243 22.0397 63.2992 27.1999H47.7288C47.2539 24.4744 46.3889 22.0579 45.1338 19.9502C43.8786 17.8062 42.2334 16.1346 40.1981 14.9354C38.1627 13.6999 35.7203 13.0821 32.8708 13.0821C29.4447 13.0821 26.4934 13.9724 24.0171 15.753C21.5407 17.5337 19.6411 20.4044 18.3181 24.3654C16.9951 28.3264 16.3336 33.5592 16.3336 40.0639C16.3336 49.8755 17.7923 56.9798 20.7096 61.3769C23.6609 65.7376 27.7146 67.9179 32.8708 67.9179C35.7203 67.9179 38.1627 67.2275 40.1981 65.8466C42.2334 64.4293 43.8786 62.576 45.1338 60.2867C46.3889 57.961 47.2539 55.4172 47.7288 52.6555H63.2992C62.8582 56.3984 62.0102 59.9778 60.755 63.3937C59.4999 66.7732 57.719 69.7894 55.4123 72.4421C53.1055 75.0949 50.1373 77.1844 46.5076 78.7106C42.8779 80.2369 38.485 81 33.3288 81ZM106.985 81C100.031 81 94.0098 79.3829 88.9215 76.1487C83.867 72.8782 79.949 68.245 77.1673 62.249C74.4196 56.2167 73.0458 49.0215 73.0458 40.6635C73.0458 32.2692 74.4366 25.0377 77.2182 18.969C80.0338 12.9004 83.9858 8.23083 89.0741 4.9603C94.1625 1.65344 100.133 0 106.985 0C113.804 0 119.74 1.63527 124.794 4.90579C129.849 8.17632 133.75 12.8459 136.498 18.9145C139.279 24.9832 140.67 32.2328 140.67 40.6635C140.67 48.9852 139.296 56.1622 136.549 62.1945C133.835 68.2268 129.951 72.8782 124.896 76.1487C119.842 79.3829 113.871 81 106.985 81ZM106.985 67.9179C110.581 67.9179 113.685 67.0094 116.297 65.1925C118.943 63.3392 120.978 60.432 122.403 56.4711C123.828 52.4738 124.54 47.2773 124.54 40.8816C124.54 34.3042 123.811 28.9805 122.352 24.9105C120.927 20.8405 118.892 17.8607 116.246 15.9711C113.634 14.0451 110.547 13.0821 106.985 13.0821C103.423 13.0821 100.319 14.0451 97.6734 15.9711C95.0275 17.8607 92.9752 20.8587 91.5165 24.965C90.0579 29.035 89.3285 34.3405 89.3285 40.8816C89.3285 47.3136 90.0579 52.5101 91.5165 56.4711C92.9752 60.432 95.0275 63.3392 97.6734 65.1925C100.319 67.0094 103.423 67.9179 106.985 67.9179ZM153.823 79.9098V1.09018H184.862C190.73 1.09018 195.531 2.08951 199.262 4.08816C202.993 6.08681 205.741 8.86676 207.505 12.428C209.269 15.9529 210.151 20.0229 210.151 24.638C210.151 28.7806 209.54 32.2874 208.319 35.1581C207.132 37.9926 205.555 40.3546 203.587 42.2443C201.653 44.1339 199.533 45.6783 197.227 46.8775L210.914 79.9098H195.497L183.539 49.5485H168.63V79.9098H153.823ZM168.63 37.284H182.216C186.185 37.284 189.323 36.1393 191.629 33.8499C193.97 31.5606 195.14 28.6171 195.14 25.0195C195.14 21.3856 194.021 18.5148 191.782 16.4071C189.543 14.2995 186.711 13.2456 183.285 13.2456H168.63V37.284ZM224.683 79.9098V1.09018H255.722C261.591 1.09018 266.391 2.08951 270.122 4.08816C273.854 6.08681 276.601 8.86676 278.365 12.428C280.129 15.9529 281.011 20.0229 281.011 24.638C281.011 28.7806 280.401 32.2874 279.179 35.1581C277.992 37.9926 276.415 40.3546 274.447 42.2443C272.514 44.1339 270.393 45.6783 268.087 46.8775L281.774 79.9098H266.357L254.399 49.5485H239.49V79.9098H224.683ZM239.49 37.284H253.076C257.045 37.284 260.183 36.1393 262.49 33.8499C264.83 31.5606 266.001 28.6171 266.001 25.0195C266.001 21.3856 264.881 18.5148 262.642 16.4071C260.403 14.2995 257.571 13.2456 254.145 13.2456H239.49V37.284ZM324.534 81C317.58 81 311.558 79.3829 306.47 76.1487C301.416 72.8782 297.497 68.245 294.716 62.249C291.968 56.2167 290.594 49.0215 290.594 40.6635C290.594 32.2692 291.985 25.0377 294.767 18.969C297.582 12.9004 301.534 8.23083 306.623 4.9603C311.711 1.65344 317.681 0 324.534 0C331.352 0 337.288 1.63527 342.343 4.90579C347.397 8.17632 351.298 12.8459 354.046 18.9145C356.828 24.9832 358.219 32.2328 358.219 40.6635C358.219 48.9852 356.845 56.1622 354.097 62.1945C351.383 68.2268 347.499 72.8782 342.445 76.1487C337.39 79.3829 331.42 81 324.534 81ZM324.534 67.9179C328.129 67.9179 331.233 67.0094 333.845 65.1925C336.491 63.3392 338.527 60.432 339.951 56.4711C341.376 52.4738 342.088 47.2773 342.088 40.8816C342.088 34.3042 341.359 28.9805 339.9 24.9105C338.476 20.8405 336.44 17.8607 333.794 15.9711C331.182 14.0451 328.095 13.0821 324.534 13.0821C320.972 13.0821 317.868 14.0451 315.222 15.9711C312.576 17.8607 310.524 20.8587 309.065 24.965C307.606 29.035 306.877 34.3405 306.877 40.8816C306.877 47.3136 307.606 52.5101 309.065 56.4711C310.524 60.432 312.576 63.3392 315.222 65.1925C317.868 67.0094 320.972 67.9179 324.534 67.9179ZM399.347 81C395.684 81 392.105 80.5094 388.611 79.5283C385.117 78.5471 381.928 77.0754 379.045 75.1131C376.161 73.1507 373.787 70.6979 371.921 67.7544C370.089 64.8109 368.987 61.3587 368.614 57.3977H383.828C384.337 59.7961 385.304 61.8129 386.728 63.4482C388.187 65.0835 390.053 66.3372 392.325 67.2093C394.632 68.0814 397.261 68.5175 400.212 68.5175C402.553 68.5175 404.775 68.1541 406.878 67.4273C408.981 66.7005 410.694 65.5922 412.017 64.1023C413.34 62.6124 414.002 60.7409 414.002 58.4879C414.002 55.7988 413.086 53.782 411.254 52.4374C409.422 51.0565 406.929 49.9664 403.774 49.1669L389.985 45.9509C386.084 45.0787 382.675 43.7342 379.757 41.9172C376.874 40.0639 374.652 37.6655 373.091 34.7221C371.531 31.7423 370.751 28.1265 370.751 23.8748C370.751 18.969 372.006 14.7355 374.516 11.1743C377.06 7.61306 380.504 4.88762 384.846 2.99799C389.222 1.07201 394.123 0.109015 399.551 0.109015C405.691 0.109015 410.864 1.18103 415.07 3.32504C419.311 5.43271 422.55 8.3035 424.789 11.9374C427.028 15.535 428.165 19.5505 428.198 23.9839H413.34C413.069 21.2584 412.289 19.0781 411 17.4428C409.711 15.7712 408.049 14.572 406.013 13.8452C404.012 13.0821 401.722 12.7005 399.144 12.7005C394.7 12.7005 391.46 13.6635 389.425 15.5895C387.39 17.5155 386.372 19.7503 386.372 22.2941C386.372 24.6925 387.135 26.6366 388.662 28.1265C390.222 29.5801 392.716 30.6884 396.142 31.4516L408.914 34.395C413.663 35.3762 417.513 36.9388 420.464 39.0828C423.415 41.1904 425.569 43.7524 426.926 46.7685C428.283 49.7847 428.962 53.1642 428.962 56.9071C428.962 61.6676 427.69 65.8647 425.145 69.4987C422.635 73.0962 419.158 75.9125 414.714 77.9475C410.27 79.9825 405.148 81 399.347 81ZM442.13 79.9098V1.09018H456.937V79.9098H442.13ZM504.017 81C497.063 81 491.042 79.3829 485.953 76.1487C480.899 72.8782 476.981 68.245 474.199 62.249C471.452 56.2167 470.078 49.0215 470.078 40.6635C470.078 32.2692 471.469 25.0377 474.25 18.969C477.066 12.9004 481.018 8.23083 486.106 4.9603C491.194 1.65344 497.165 0 504.017 0C510.836 0 516.772 1.63527 521.826 4.90579C526.881 8.17632 530.782 12.8459 533.53 18.9145C536.311 24.9832 537.702 32.2328 537.702 40.6635C537.702 48.9852 536.328 56.1622 533.581 62.1945C530.867 68.2268 526.983 72.8782 521.928 76.1487C516.874 79.3829 510.903 81 504.017 81ZM504.017 67.9179C507.613 67.9179 510.717 67.0094 513.329 65.1925C515.975 63.3392 518.01 60.432 519.435 56.4711C520.86 52.4738 521.572 47.2773 521.572 40.8816C521.572 34.3042 520.843 28.9805 519.384 24.9105C517.959 20.8405 515.924 17.8607 513.278 15.9711C510.666 14.0451 507.579 13.0821 504.017 13.0821C500.455 13.0821 497.351 14.0451 494.705 15.9711C492.06 17.8607 490.007 20.8587 488.549 24.965C487.09 29.035 486.361 34.3405 486.361 40.8816C486.361 47.3136 487.09 52.5101 488.549 56.4711C490.007 60.432 492.06 63.3392 494.705 65.1925C497.351 67.0094 500.455 67.9179 504.017 67.9179ZM550.853 79.9098V1.09018H565.559L599.142 53.2551V1.09018H614V79.9098H600.618L565.661 25.6736V79.9098H550.853Z" fill="#363636"/>
<path d="M651.033 81C644.059 81 638.022 79.3829 632.919 76.1487C627.851 72.8782 623.922 68.245 621.133 62.249C618.378 56.2167 617 49.0215 617 40.6635C617 32.2692 618.395 25.0377 621.184 18.969C624.007 12.9004 627.97 8.23083 633.072 4.9603C638.175 1.65344 644.161 0 651.033 0C657.87 0 663.822 1.63527 668.891 4.90579C673.959 8.17632 677.871 12.8459 680.626 18.9145C683.415 24.9832 684.81 32.2328 684.81 40.6635C684.81 48.9852 683.432 56.1622 680.677 62.1945C677.956 68.2268 674.061 72.8782 668.993 76.1487C663.924 79.3829 657.938 81 651.033 81ZM651.033 67.9179C654.638 67.9179 657.751 67.0094 660.37 65.1925C663.023 63.3392 665.064 60.432 666.493 56.4711C667.921 52.4738 668.636 47.2773 668.636 40.8816C668.636 34.3042 667.904 28.9805 666.442 24.9105C665.013 20.8405 662.972 17.8607 660.319 15.9711C657.7 14.0451 654.604 13.0821 651.033 13.0821C647.461 13.0821 644.349 14.0451 641.695 15.9711C639.042 17.8607 636.984 20.8587 635.521 24.965C634.059 29.035 633.328 34.3405 633.328 40.8816C633.328 47.3136 634.059 52.5101 635.521 56.4711C636.984 60.432 639.042 63.3392 641.695 65.1925C644.349 67.0094 647.461 67.9179 651.033 67.9179ZM698 79.9098V1.09018H712.745L746.421 53.2551V1.09018H761.32V79.9098H747.901L712.847 25.6736V79.9098H698ZM777.824 79.9098V1.09018H828.49L828.439 14.4993H792.773V33.6319H823.745V46.7685H792.671V66.3371L829 66.3917V79.9098H777.824Z" fill="#8EDA4F"/>
</svg>
